<svg width="401" height="108" viewBox="0 0 401 108" fill="none" xmlns="http://www.w3.org/2000/svg">
<path d="M181.23 86.7859L178.638 99.8179H176.91L177.81 95.2639C177.39 95.6359 176.904 95.9239 176.352 96.1279C175.8 96.3319 175.2 96.4339 174.552 96.4339C173.736 96.4339 173.01 96.2719 172.374 95.9479C171.738 95.6119 171.24 95.1319 170.88 94.5079C170.52 93.8839 170.34 93.1519 170.34 92.3119C170.34 91.2319 170.574 90.2659 171.042 89.4139C171.51 88.5619 172.152 87.8959 172.968 87.4159C173.796 86.9359 174.72 86.6959 175.74 86.6959C176.58 86.6959 177.294 86.8519 177.882 87.1639C178.482 87.4639 178.932 87.9139 179.232 88.5139L179.592 86.7859H181.23ZM174.93 94.9219C175.638 94.9219 176.274 94.7539 176.838 94.4179C177.414 94.0699 177.858 93.5899 178.17 92.9779C178.494 92.3659 178.656 91.6699 178.656 90.8899C178.656 90.0379 178.41 89.3779 177.918 88.9099C177.426 88.4419 176.724 88.2079 175.812 88.2079C175.104 88.2079 174.468 88.3819 173.904 88.7299C173.34 89.0659 172.896 89.5399 172.572 90.1519C172.248 90.7639 172.086 91.4599 172.086 92.2399C172.086 93.0799 172.332 93.7399 172.824 94.2199C173.328 94.6879 174.03 94.9219 174.93 94.9219ZM193.409 86.7859L191.519 96.3259H189.863L190.097 95.1019C189.665 95.5459 189.155 95.8819 188.567 96.1099C187.991 96.3259 187.361 96.4339 186.677 96.4339C185.621 96.4339 184.787 96.1519 184.175 95.5879C183.563 95.0239 183.257 94.2379 183.257 93.2299C183.257 92.8939 183.293 92.5279 183.365 92.1319L184.427 86.7859H186.155L185.093 92.1499C185.033 92.4739 185.003 92.7439 185.003 92.9599C185.003 93.5839 185.183 94.0639 185.543 94.3999C185.915 94.7239 186.461 94.8859 187.181 94.8859C188.093 94.8859 188.849 94.6279 189.449 94.1119C190.061 93.5959 190.469 92.8399 190.673 91.8439L191.681 86.7859H193.409ZM196.699 86.7859H198.427L196.537 96.3259H194.809L196.699 86.7859ZM198.067 84.9499C197.755 84.9499 197.497 84.8479 197.293 84.6439C197.089 84.4399 196.987 84.1939 196.987 83.9059C196.987 83.5699 197.101 83.2879 197.329 83.0599C197.569 82.8199 197.869 82.6999 198.229 82.6999C198.541 82.6999 198.799 82.8019 199.003 83.0059C199.219 83.1979 199.327 83.4319 199.327 83.7079C199.327 84.0799 199.207 84.3799 198.967 84.6079C198.739 84.8359 198.439 84.9499 198.067 84.9499ZM202.842 96.4339C202.05 96.4339 201.294 96.3319 200.574 96.1279C199.866 95.9239 199.314 95.6599 198.918 95.3359L199.692 93.9679C200.064 94.2679 200.544 94.5079 201.132 94.6879C201.732 94.8559 202.356 94.9399 203.004 94.9399C203.82 94.9399 204.438 94.8199 204.858 94.5799C205.29 94.3279 205.506 93.9799 205.506 93.5359C205.506 93.1759 205.332 92.9179 204.984 92.7619C204.648 92.6059 204.12 92.4499 203.4 92.2939C202.728 92.1499 202.176 92.0059 201.744 91.8619C201.324 91.7059 200.964 91.4659 200.664 91.1419C200.364 90.8059 200.214 90.3559 200.214 89.7919C200.214 89.1679 200.388 88.6219 200.736 88.1539C201.096 87.6859 201.6 87.3259 202.248 87.0739C202.908 86.8219 203.67 86.6959 204.534 86.6959C205.17 86.6959 205.788 86.7739 206.388 86.9299C206.988 87.0859 207.48 87.2959 207.864 87.5599L207.18 88.9279C206.808 88.6759 206.376 88.4899 205.884 88.3699C205.392 88.2379 204.888 88.1719 204.372 88.1719C203.592 88.1719 202.992 88.3039 202.572 88.5679C202.152 88.8199 201.942 89.1619 201.942 89.5939C201.942 89.9779 202.116 90.2539 202.464 90.4219C202.812 90.5779 203.352 90.7339 204.084 90.8899C204.744 91.0339 205.284 91.1779 205.704 91.3219C206.124 91.4659 206.478 91.6999 206.766 92.0239C207.066 92.3479 207.216 92.7859 207.216 93.3379C207.216 94.3099 206.814 95.0719 206.01 95.6239C205.218 96.1639 204.162 96.4339 202.842 96.4339ZM220.456 86.6959C221.548 86.6959 222.394 86.9719 222.994 87.5239C223.606 88.0759 223.912 88.8559 223.912 89.8639C223.912 90.2119 223.876 90.5839 223.804 90.9799L222.742 96.3259H221.014L222.076 90.9799C222.136 90.6559 222.166 90.3919 222.166 90.1879C222.166 89.5639 221.98 89.0839 221.608 88.7479C221.236 88.4119 220.684 88.2439 219.952 88.2439C219.016 88.2439 218.242 88.5019 217.63 89.0179C217.03 89.5219 216.628 90.2779 216.424 91.2859L215.416 96.3259H213.688L215.578 86.7859H217.234L217 88.0099C217.864 87.1339 219.016 86.6959 220.456 86.6959ZM230.456 96.4339C229.556 96.4339 228.77 96.2659 228.098 95.9299C227.426 95.5819 226.904 95.0959 226.532 94.4719C226.16 93.8479 225.974 93.1279 225.974 92.3119C225.974 91.2439 226.214 90.2839 226.694 89.4319C227.174 88.5799 227.84 87.9139 228.692 87.4339C229.544 86.9419 230.504 86.6959 231.572 86.6959C232.472 86.6959 233.258 86.8639 233.93 87.1999C234.602 87.5359 235.118 88.0159 235.478 88.6399C235.85 89.2519 236.036 89.9719 236.036 90.7999C236.036 91.8679 235.796 92.8339 235.316 93.6979C234.836 94.5499 234.17 95.2219 233.318 95.7139C232.478 96.1939 231.524 96.4339 230.456 96.4339ZM230.564 94.9219C231.272 94.9219 231.908 94.7539 232.472 94.4179C233.048 94.0699 233.492 93.5899 233.804 92.9779C234.128 92.3659 234.29 91.6699 234.29 90.8899C234.29 90.0379 234.044 89.3779 233.552 88.9099C233.06 88.4419 232.358 88.2079 231.446 88.2079C230.738 88.2079 230.102 88.3819 229.538 88.7299C228.974 89.0659 228.53 89.5399 228.206 90.1519C227.882 90.7639 227.72 91.4599 227.72 92.2399C227.72 93.0799 227.966 93.7399 228.458 94.2199C228.962 94.6879 229.664 94.9219 230.564 94.9219ZM240.424 96.4339C239.632 96.4339 238.876 96.3319 238.156 96.1279C237.448 95.9239 236.896 95.6599 236.5 95.3359L237.274 93.9679C237.646 94.2679 238.126 94.5079 238.714 94.6879C239.314 94.8559 239.938 94.9399 240.586 94.9399C241.402 94.9399 242.02 94.8199 242.44 94.5799C242.872 94.3279 243.088 93.9799 243.088 93.5359C243.088 93.1759 242.914 92.9179 242.566 92.7619C242.23 92.6059 241.702 92.4499 240.982 92.2939C240.31 92.1499 239.758 92.0059 239.326 91.8619C238.906 91.7059 238.546 91.4659 238.246 91.1419C237.946 90.8059 237.796 90.3559 237.796 89.7919C237.796 89.1679 237.97 88.6219 238.318 88.1539C238.678 87.6859 239.182 87.3259 239.83 87.0739C240.49 86.8219 241.252 86.6959 242.116 86.6959C242.752 86.6959 243.37 86.7739 243.97 86.9299C244.57 87.0859 245.062 87.2959 245.446 87.5599L244.762 88.9279C244.39 88.6759 243.958 88.4899 243.466 88.3699C242.974 88.2379 242.47 88.1719 241.954 88.1719C241.174 88.1719 240.574 88.3039 240.154 88.5679C239.734 88.8199 239.524 89.1619 239.524 89.5939C239.524 89.9779 239.698 90.2539 240.046 90.4219C240.394 90.5779 240.934 90.7339 241.666 90.8899C242.326 91.0339 242.866 91.1779 243.286 91.3219C243.706 91.4659 244.06 91.6999 244.348 92.0239C244.648 92.3479 244.798 92.7859 244.798 93.3379C244.798 94.3099 244.396 95.0719 243.592 95.6239C242.8 96.1639 241.744 96.4339 240.424 96.4339ZM248.992 93.2839C248.956 93.4639 248.938 93.6319 248.938 93.7879C248.938 94.1719 249.04 94.4659 249.244 94.6699C249.46 94.8739 249.778 94.9759 250.198 94.9759C250.702 94.9759 251.158 94.8259 251.566 94.5259L251.926 95.8399C251.35 96.2359 250.612 96.4339 249.712 96.4339C248.956 96.4339 248.344 96.2239 247.876 95.8039C247.42 95.3719 247.192 94.7839 247.192 94.0399C247.192 93.7879 247.216 93.5479 247.264 93.3199L248.29 88.2079H246.67L246.94 86.7859H248.578L248.992 84.6979H250.72L250.306 86.7859H253.042L252.754 88.2079H250.018L248.992 93.2839ZM257.165 88.2079C257.585 87.6799 258.101 87.2959 258.713 87.0559C259.325 86.8159 260.069 86.6959 260.945 86.6959L260.621 88.3699C260.513 88.3579 260.363 88.3519 260.171 88.3519C258.191 88.3519 256.991 89.4199 256.571 91.5559L255.617 96.3259H253.889L255.779 86.7859H257.435L257.165 88.2079ZM272.054 86.7859L270.164 96.3259H268.508L268.742 95.1019C268.31 95.5459 267.8 95.8819 267.212 96.1099C266.636 96.3259 266.006 96.4339 265.322 96.4339C264.266 96.4339 263.432 96.1519 262.82 95.5879C262.208 95.0239 261.902 94.2379 261.902 93.2299C261.902 92.8939 261.938 92.5279 262.01 92.1319L263.072 86.7859H264.8L263.738 92.1499C263.678 92.4739 263.648 92.7439 263.648 92.9599C263.648 93.5839 263.828 94.0639 264.188 94.3999C264.56 94.7239 265.106 94.8859 265.826 94.8859C266.738 94.8859 267.494 94.6279 268.094 94.1119C268.706 93.5959 269.114 92.8399 269.318 91.8439L270.326 86.7859H272.054ZM285.099 82.9699L282.435 96.3259H280.779L281.013 95.1559C280.581 95.5639 280.077 95.8819 279.501 96.1099C278.937 96.3259 278.319 96.4339 277.647 96.4339C276.831 96.4339 276.105 96.2719 275.469 95.9479C274.833 95.6119 274.335 95.1319 273.975 94.5079C273.615 93.8839 273.435 93.1519 273.435 92.3119C273.435 91.2319 273.669 90.2659 274.137 89.4139C274.605 88.5619 275.247 87.8959 276.063 87.4159C276.891 86.9359 277.815 86.6959 278.835 86.6959C279.651 86.6959 280.353 86.8459 280.941 87.1459C281.541 87.4339 281.991 87.8599 282.291 88.4239L283.371 82.9699H285.099ZM278.025 94.9219C278.733 94.9219 279.369 94.7539 279.933 94.4179C280.509 94.0699 280.953 93.5899 281.265 92.9779C281.589 92.3659 281.751 91.6699 281.751 90.8899C281.751 90.0379 281.505 89.3779 281.013 88.9099C280.521 88.4419 279.819 88.2079 278.907 88.2079C278.199 88.2079 277.563 88.3819 276.999 88.7299C276.435 89.0659 275.991 89.5399 275.667 90.1519C275.343 90.7639 275.181 91.4599 275.181 92.2399C275.181 93.0799 275.427 93.7399 275.919 94.2199C276.423 94.6879 277.125 94.9219 278.025 94.9219ZM292.231 92.0959V92.2039C292.231 93.0919 292.483 93.7699 292.987 94.2379C293.491 94.6939 294.247 94.9219 295.255 94.9219C295.843 94.9219 296.395 94.8259 296.911 94.6339C297.427 94.4299 297.859 94.1599 298.207 93.8239L298.945 95.0659C298.477 95.4979 297.907 95.8339 297.235 96.0739C296.563 96.3139 295.855 96.4339 295.111 96.4339C294.175 96.4339 293.365 96.2659 292.681 95.9299C291.997 95.5939 291.469 95.1139 291.097 94.4899C290.725 93.8659 290.539 93.1339 290.539 92.2939C290.539 91.2259 290.767 90.2659 291.223 89.4139C291.691 88.5619 292.333 87.8959 293.149 87.4159C293.977 86.9359 294.901 86.6959 295.921 86.6959C297.217 86.6959 298.249 87.0679 299.017 87.8119C299.797 88.5439 300.187 89.5459 300.187 90.8179C300.187 91.2019 300.145 91.6279 300.061 92.0959H292.231ZM295.849 88.1359C294.997 88.1359 294.265 88.3759 293.653 88.8559C293.041 89.3359 292.627 89.9959 292.411 90.8359H298.567C298.615 89.9839 298.387 89.3239 297.883 88.8559C297.391 88.3759 296.713 88.1359 295.849 88.1359ZM306.499 91.5199L309.271 96.3259H307.435L305.383 92.6539L301.891 96.3259H299.875L304.681 91.3939L302.053 86.7859H303.853L305.797 90.2419L309.109 86.7859H311.071L306.499 91.5199ZM312.586 92.0959V92.2039C312.586 93.0919 312.838 93.7699 313.342 94.2379C313.846 94.6939 314.602 94.9219 315.61 94.9219C316.198 94.9219 316.75 94.8259 317.266 94.6339C317.782 94.4299 318.214 94.1599 318.562 93.8239L319.3 95.0659C318.832 95.4979 318.262 95.8339 317.59 96.0739C316.918 96.3139 316.21 96.4339 315.466 96.4339C314.53 96.4339 313.72 96.2659 313.036 95.9299C312.352 95.5939 311.824 95.1139 311.452 94.4899C311.08 93.8659 310.894 93.1339 310.894 92.2939C310.894 91.2259 311.122 90.2659 311.578 89.4139C312.046 88.5619 312.688 87.8959 313.504 87.4159C314.332 86.9359 315.256 86.6959 316.276 86.6959C317.572 86.6959 318.604 87.0679 319.372 87.8119C320.152 88.5439 320.542 89.5459 320.542 90.8179C320.542 91.2019 320.5 91.6279 320.416 92.0959H312.586ZM316.204 88.1359C315.352 88.1359 314.62 88.3759 314.008 88.8559C313.396 89.3359 312.982 89.9959 312.766 90.8359H318.922C318.97 89.9839 318.742 89.3239 318.238 88.8559C317.746 88.3759 317.068 88.1359 316.204 88.1359ZM325.192 88.2079C325.612 87.6799 326.128 87.2959 326.74 87.0559C327.352 86.8159 328.096 86.6959 328.972 86.6959L328.648 88.3699C328.54 88.3579 328.39 88.3519 328.198 88.3519C326.218 88.3519 325.018 89.4199 324.598 91.5559L323.644 96.3259H321.916L323.806 86.7859H325.462L325.192 88.2079ZM333.606 96.4339C332.694 96.4339 331.896 96.2659 331.212 95.9299C330.528 95.5819 330 95.1019 329.628 94.4899C329.256 93.8659 329.07 93.1399 329.07 92.3119C329.07 91.2439 329.31 90.2839 329.79 89.4319C330.27 88.5799 330.936 87.9139 331.788 87.4339C332.64 86.9419 333.606 86.6959 334.686 86.6959C336.57 86.6959 337.878 87.3859 338.61 88.7659L337.152 89.5759C336.648 88.6639 335.784 88.2079 334.56 88.2079C333.852 88.2079 333.21 88.3819 332.634 88.7299C332.07 89.0659 331.626 89.5399 331.302 90.1519C330.978 90.7639 330.816 91.4599 330.816 92.2399C330.816 93.0799 331.062 93.7399 331.554 94.2199C332.058 94.6879 332.766 94.9219 333.678 94.9219C334.254 94.9219 334.788 94.8079 335.28 94.5799C335.784 94.3519 336.198 94.0159 336.522 93.5719L337.782 94.4719C337.338 95.0839 336.744 95.5639 336 95.9119C335.256 96.2599 334.458 96.4339 333.606 96.4339ZM341.261 86.7859H342.989L341.099 96.3259H339.371L341.261 86.7859ZM342.629 84.9499C342.317 84.9499 342.059 84.8479 341.855 84.6439C341.651 84.4399 341.549 84.1939 341.549 83.9059C341.549 83.5699 341.663 83.2879 341.891 83.0599C342.131 82.8199 342.431 82.6999 342.791 82.6999C343.103 82.6999 343.361 82.8019 343.565 83.0059C343.781 83.1979 343.889 83.4319 343.889 83.7079C343.889 84.0799 343.769 84.3799 343.529 84.6079C343.301 84.8359 343.001 84.9499 342.629 84.9499ZM346.955 93.2839C346.919 93.4639 346.901 93.6319 346.901 93.7879C346.901 94.1719 347.003 94.4659 347.207 94.6699C347.423 94.8739 347.741 94.9759 348.161 94.9759C348.665 94.9759 349.121 94.8259 349.529 94.5259L349.889 95.8399C349.313 96.2359 348.575 96.4339 347.675 96.4339C346.919 96.4339 346.307 96.2239 345.839 95.8039C345.383 95.3719 345.155 94.7839 345.155 94.0399C345.155 93.7879 345.179 93.5479 345.227 93.3199L346.253 88.2079H344.633L344.903 86.7859H346.541L346.955 84.6979H348.683L348.269 86.7859H351.005L350.717 88.2079H347.981L346.955 93.2839ZM362.407 86.7859L360.517 96.3259H358.861L359.095 95.1559C358.663 95.5639 358.159 95.8819 357.583 96.1099C357.019 96.3259 356.401 96.4339 355.729 96.4339C354.913 96.4339 354.187 96.2719 353.551 95.9479C352.915 95.6119 352.417 95.1319 352.057 94.5079C351.697 93.8839 351.517 93.1519 351.517 92.3119C351.517 91.2319 351.751 90.2659 352.219 89.4139C352.687 88.5619 353.329 87.8959 354.145 87.4159C354.973 86.9359 355.897 86.6959 356.917 86.6959C357.733 86.6959 358.429 86.8399 359.005 87.1279C359.593 87.4159 360.043 87.8419 360.355 88.4059L360.679 86.7859H362.407ZM356.107 94.9219C356.815 94.9219 357.451 94.7539 358.015 94.4179C358.591 94.0699 359.035 93.5899 359.347 92.9779C359.671 92.3659 359.833 91.6699 359.833 90.8899C359.833 90.0379 359.587 89.3779 359.095 88.9099C358.603 88.4419 357.901 88.2079 356.989 88.2079C356.281 88.2079 355.645 88.3819 355.081 88.7299C354.517 89.0659 354.073 89.5399 353.749 90.1519C353.425 90.7639 353.263 91.4599 353.263 92.2399C353.263 93.0799 353.509 93.7399 354.001 94.2199C354.505 94.6879 355.207 94.9219 356.107 94.9219ZM366.361 93.2839C366.325 93.4639 366.307 93.6319 366.307 93.7879C366.307 94.1719 366.409 94.4659 366.613 94.6699C366.829 94.8739 367.147 94.9759 367.567 94.9759C368.071 94.9759 368.527 94.8259 368.935 94.5259L369.295 95.8399C368.719 96.2359 367.981 96.4339 367.081 96.4339C366.325 96.4339 365.713 96.2239 365.245 95.8039C364.789 95.3719 364.561 94.7839 364.561 94.0399C364.561 93.7879 364.585 93.5479 364.633 93.3199L365.659 88.2079H364.039L364.309 86.7859H365.947L366.361 84.6979H368.089L367.675 86.7859H370.411L370.123 88.2079H367.387L366.361 93.2839ZM373.148 86.7859H374.876L372.986 96.3259H371.258L373.148 86.7859ZM374.516 84.9499C374.204 84.9499 373.946 84.8479 373.742 84.6439C373.538 84.4399 373.436 84.1939 373.436 83.9059C373.436 83.5699 373.55 83.2879 373.778 83.0599C374.018 82.8199 374.318 82.6999 374.678 82.6999C374.99 82.6999 375.248 82.8019 375.452 83.0059C375.668 83.1979 375.776 83.4319 375.776 83.7079C375.776 84.0799 375.656 84.3799 375.416 84.6079C375.188 84.8359 374.888 84.9499 374.516 84.9499ZM380.749 96.4339C379.849 96.4339 379.063 96.2659 378.391 95.9299C377.719 95.5819 377.197 95.0959 376.825 94.4719C376.453 93.8479 376.267 93.1279 376.267 92.3119C376.267 91.2439 376.507 90.2839 376.987 89.4319C377.467 88.5799 378.133 87.9139 378.985 87.4339C379.837 86.9419 380.797 86.6959 381.865 86.6959C382.765 86.6959 383.551 86.8639 384.223 87.1999C384.895 87.5359 385.411 88.0159 385.771 88.6399C386.143 89.2519 386.329 89.9719 386.329 90.7999C386.329 91.8679 386.089 92.8339 385.609 93.6979C385.129 94.5499 384.463 95.2219 383.611 95.7139C382.771 96.1939 381.817 96.4339 380.749 96.4339ZM380.857 94.9219C381.565 94.9219 382.201 94.7539 382.765 94.4179C383.341 94.0699 383.785 93.5899 384.097 92.9779C384.421 92.3659 384.583 91.6699 384.583 90.8899C384.583 90.0379 384.337 89.3779 383.845 88.9099C383.353 88.4419 382.651 88.2079 381.739 88.2079C381.031 88.2079 380.395 88.3819 379.831 88.7299C379.267 89.0659 378.823 89.5399 378.499 90.1519C378.175 90.7639 378.013 91.4599 378.013 92.2399C378.013 93.0799 378.259 93.7399 378.751 94.2199C379.255 94.6879 379.957 94.9219 380.857 94.9219ZM394.479 86.6959C395.571 86.6959 396.417 86.9719 397.017 87.5239C397.629 88.0759 397.935 88.8559 397.935 89.8639C397.935 90.2119 397.899 90.5839 397.827 90.9799L396.765 96.3259H395.037L396.099 90.9799C396.159 90.6559 396.189 90.3919 396.189 90.1879C396.189 89.5639 396.003 89.0839 395.631 88.7479C395.259 88.4119 394.707 88.2439 393.975 88.2439C393.039 88.2439 392.265 88.5019 391.653 89.0179C391.053 89.5219 390.651 90.2779 390.447 91.2859L389.439 96.3259H387.711L389.601 86.7859H391.257L391.023 88.0099C391.887 87.1339 393.039 86.6959 394.479 86.6959Z" fill="#A0222B"/>
<path d="M149.855 30.6014H138.155L135.923 36.0014H129.947L141.179 10.8014H146.939L158.207 36.0014H152.087L149.855 30.6014ZM148.019 26.1734L144.023 16.5254L140.027 26.1734H148.019ZM166.942 36.2894C165.334 36.2894 163.762 36.0974 162.226 35.7134C160.69 35.3054 159.466 34.8014 158.554 34.2014L160.426 30.1694C161.29 30.7214 162.334 31.1774 163.558 31.5374C164.782 31.8734 165.982 32.0414 167.158 32.0414C169.534 32.0414 170.722 31.4534 170.722 30.2774C170.722 29.7254 170.398 29.3294 169.75 29.0894C169.102 28.8494 168.106 28.6454 166.762 28.4774C165.178 28.2374 163.87 27.9614 162.838 27.6494C161.806 27.3374 160.906 26.7854 160.138 25.9934C159.394 25.2014 159.022 24.0734 159.022 22.6094C159.022 21.3854 159.37 20.3054 160.066 19.3694C160.786 18.4094 161.818 17.6654 163.162 17.1374C164.53 16.6094 166.138 16.3454 167.986 16.3454C169.354 16.3454 170.71 16.5014 172.054 16.8134C173.422 17.1014 174.55 17.5094 175.438 18.0374L173.566 22.0334C171.862 21.0734 170.002 20.5934 167.986 20.5934C166.786 20.5934 165.886 20.7614 165.286 21.0974C164.686 21.4334 164.386 21.8654 164.386 22.3934C164.386 22.9934 164.71 23.4134 165.358 23.6534C166.006 23.8934 167.038 24.1214 168.454 24.3374C170.038 24.6014 171.334 24.8894 172.342 25.2014C173.35 25.4894 174.226 26.0294 174.97 26.8214C175.714 27.6134 176.086 28.7174 176.086 30.1334C176.086 31.3334 175.726 32.4014 175.006 33.3374C174.286 34.2734 173.23 35.0054 171.838 35.5334C170.47 36.0374 168.838 36.2894 166.942 36.2894ZM188.911 36.2894C186.847 36.2894 184.987 35.8694 183.331 35.0294C181.699 34.1654 180.415 32.9774 179.479 31.4654C178.567 29.9534 178.111 28.2374 178.111 26.3174C178.111 24.3974 178.567 22.6814 179.479 21.1694C180.415 19.6574 181.699 18.4814 183.331 17.6414C184.987 16.7774 186.847 16.3454 188.911 16.3454C190.951 16.3454 192.727 16.7774 194.239 17.6414C195.775 18.4814 196.891 19.6934 197.587 21.2774L193.231 23.6174C192.223 21.8414 190.771 20.9534 188.875 20.9534C187.411 20.9534 186.199 21.4334 185.239 22.3934C184.279 23.3534 183.799 24.6614 183.799 26.3174C183.799 27.9734 184.279 29.2814 185.239 30.2414C186.199 31.2014 187.411 31.6814 188.875 31.6814C190.795 31.6814 192.247 30.7934 193.231 29.0174L197.587 31.3934C196.891 32.9294 195.775 34.1294 194.239 34.9934C192.727 35.8574 190.951 36.2894 188.911 36.2894ZM219.792 26.3894C219.792 26.4614 219.756 26.9654 219.684 27.9014H205.032C205.296 29.1014 205.92 30.0494 206.904 30.7454C207.888 31.4414 209.112 31.7894 210.576 31.7894C211.584 31.7894 212.472 31.6454 213.24 31.3574C214.032 31.0454 214.764 30.5654 215.436 29.9174L218.424 33.1574C216.6 35.2454 213.936 36.2894 210.432 36.2894C208.248 36.2894 206.316 35.8694 204.636 35.0294C202.956 34.1654 201.66 32.9774 200.748 31.4654C199.836 29.9534 199.38 28.2374 199.38 26.3174C199.38 24.4214 199.824 22.7174 200.712 21.2054C201.624 19.6694 202.86 18.4814 204.42 17.6414C206.004 16.7774 207.768 16.3454 209.712 16.3454C211.608 16.3454 213.324 16.7534 214.86 17.5694C216.396 18.3854 217.596 19.5614 218.46 21.0974C219.348 22.6094 219.792 24.3734 219.792 26.3894ZM209.748 20.5934C208.476 20.5934 207.408 20.9534 206.544 21.6734C205.68 22.3934 205.152 23.3774 204.96 24.6254H214.5C214.308 23.4014 213.78 22.4294 212.916 21.7094C212.052 20.9654 210.996 20.5934 209.748 20.5934ZM235.303 16.3454C237.703 16.3454 239.635 17.0654 241.099 18.5054C242.587 19.9454 243.331 22.0814 243.331 24.9134V36.0014H237.715V25.7774C237.715 24.2414 237.379 23.1014 236.707 22.3574C236.035 21.5894 235.063 21.2054 233.791 21.2054C232.375 21.2054 231.247 21.6494 230.407 22.5374C229.567 23.4014 229.147 24.6974 229.147 26.4254V36.0014H223.531V16.6334H228.895V18.9014C229.639 18.0854 230.563 17.4614 231.667 17.0294C232.771 16.5734 233.983 16.3454 235.303 16.3454ZM268.15 9.28939V36.0014H262.786V33.7694C261.394 35.4494 259.378 36.2894 256.738 36.2894C254.914 36.2894 253.258 35.8814 251.77 35.0654C250.306 34.2494 249.154 33.0854 248.314 31.5734C247.474 30.0614 247.054 28.3094 247.054 26.3174C247.054 24.3254 247.474 22.5734 248.314 21.0614C249.154 19.5494 250.306 18.3854 251.77 17.5694C253.258 16.7534 254.914 16.3454 256.738 16.3454C259.21 16.3454 261.142 17.1254 262.534 18.6854V9.28939H268.15ZM257.71 31.6814C259.126 31.6814 260.302 31.2014 261.238 30.2414C262.174 29.2574 262.642 27.9494 262.642 26.3174C262.642 24.6854 262.174 23.3894 261.238 22.4294C260.302 21.4454 259.126 20.9534 257.71 20.9534C256.27 20.9534 255.082 21.4454 254.146 22.4294C253.21 23.3894 252.742 24.6854 252.742 26.3174C252.742 27.9494 253.21 29.2574 254.146 30.2414C255.082 31.2014 256.27 31.6814 257.71 31.6814ZM281.16 16.3454C284.16 16.3454 286.464 17.0654 288.072 18.5054C289.68 19.9214 290.484 22.0694 290.484 24.9494V36.0014H285.228V33.5894C284.172 35.3894 282.204 36.2894 279.324 36.2894C277.836 36.2894 276.54 36.0374 275.436 35.5334C274.356 35.0294 273.528 34.3334 272.952 33.4454C272.376 32.5574 272.088 31.5494 272.088 30.4214C272.088 28.6214 272.76 27.2054 274.104 26.1734C275.472 25.1414 277.572 24.6254 280.404 24.6254H284.868C284.868 23.4014 284.496 22.4654 283.752 21.8174C283.008 21.1454 281.892 20.8094 280.404 20.8094C279.372 20.8094 278.352 20.9774 277.344 21.3134C276.36 21.6254 275.52 22.0574 274.824 22.6094L272.808 18.6854C273.864 17.9414 275.124 17.3654 276.588 16.9574C278.076 16.5494 279.6 16.3454 281.16 16.3454ZM280.728 32.5094C281.688 32.5094 282.54 32.2934 283.284 31.8614C284.028 31.4054 284.556 30.7454 284.868 29.8814V27.9014H281.016C278.712 27.9014 277.56 28.6574 277.56 30.1694C277.56 30.8894 277.836 31.4654 278.388 31.8974C278.964 32.3054 279.744 32.5094 280.728 32.5094ZM307.338 16.3454C309.738 16.3454 311.67 17.0654 313.134 18.5054C314.622 19.9454 315.366 22.0814 315.366 24.9134V36.0014H309.75V25.7774C309.75 24.2414 309.414 23.1014 308.742 22.3574C308.07 21.5894 307.098 21.2054 305.826 21.2054C304.41 21.2054 303.282 21.6494 302.442 22.5374C301.602 23.4014 301.182 24.6974 301.182 26.4254V36.0014H295.566V16.6334H300.93V18.9014C301.674 18.0854 302.598 17.4614 303.702 17.0294C304.806 16.5734 306.018 16.3454 307.338 16.3454ZM329.817 36.2894C327.753 36.2894 325.893 35.8694 324.237 35.0294C322.605 34.1654 321.321 32.9774 320.385 31.4654C319.473 29.9534 319.017 28.2374 319.017 26.3174C319.017 24.3974 319.473 22.6814 320.385 21.1694C321.321 19.6574 322.605 18.4814 324.237 17.6414C325.893 16.7774 327.753 16.3454 329.817 16.3454C331.857 16.3454 333.633 16.7774 335.145 17.6414C336.681 18.4814 337.797 19.6934 338.493 21.2774L334.137 23.6174C333.129 21.8414 331.677 20.9534 329.781 20.9534C328.317 20.9534 327.105 21.4334 326.145 22.3934C325.185 23.3534 324.705 24.6614 324.705 26.3174C324.705 27.9734 325.185 29.2814 326.145 30.2414C327.105 31.2014 328.317 31.6814 329.781 31.6814C331.701 31.6814 333.153 30.7934 334.137 29.0174L338.493 31.3934C337.797 32.9294 336.681 34.1294 335.145 34.9934C333.633 35.8574 331.857 36.2894 329.817 36.2894ZM360.951 16.6334L352.203 37.1894C351.315 39.4214 350.211 40.9934 348.891 41.9054C347.595 42.8174 346.023 43.2734 344.175 43.2734C343.167 43.2734 342.171 43.1174 341.187 42.8054C340.203 42.4934 339.399 42.0614 338.775 41.5094L340.827 37.5134C341.259 37.8974 341.751 38.1974 342.303 38.4134C342.879 38.6294 343.443 38.7374 343.995 38.7374C344.763 38.7374 345.387 38.5454 345.867 38.1614C346.347 37.8014 346.779 37.1894 347.163 36.3254L347.235 36.1454L338.847 16.6334H344.643L350.079 29.7734L355.551 16.6334H360.951ZM173.162 67.3214V72.0014H153.65V46.8014H172.694V51.4814H159.446V56.9534H171.146V61.4894H159.446V67.3214H173.162ZM189.178 52.3454C191.578 52.3454 193.51 53.0654 194.974 54.5054C196.462 55.9454 197.206 58.0814 197.206 60.9134V72.0014H191.59V61.7774C191.59 60.2414 191.254 59.1014 190.582 58.3574C189.91 57.5894 188.938 57.2054 187.666 57.2054C186.25 57.2054 185.122 57.6494 184.282 58.5374C183.442 59.4014 183.022 60.6974 183.022 62.4254V72.0014H177.406V52.6334H182.77V54.9014C183.514 54.0854 184.438 53.4614 185.542 53.0294C186.646 52.5734 187.858 52.3454 189.178 52.3454ZM214.789 71.0654C214.237 71.4734 213.553 71.7854 212.737 72.0014C211.945 72.1934 211.105 72.2894 210.217 72.2894C207.913 72.2894 206.125 71.7014 204.853 70.5254C203.605 69.3494 202.981 67.6214 202.981 65.3414V57.3854H199.993V53.0654H202.981V48.3494H208.597V53.0654H213.421V57.3854H208.597V65.2694C208.597 66.0854 208.801 66.7214 209.209 67.1774C209.641 67.6094 210.241 67.8254 211.009 67.8254C211.897 67.8254 212.653 67.5854 213.277 67.1054L214.789 71.0654ZM236.913 62.3894C236.913 62.4614 236.877 62.9654 236.805 63.9014H222.153C222.417 65.1014 223.041 66.0494 224.025 66.7454C225.009 67.4414 226.233 67.7894 227.697 67.7894C228.705 67.7894 229.593 67.6454 230.361 67.3574C231.153 67.0454 231.885 66.5654 232.557 65.9174L235.545 69.1574C233.721 71.2454 231.057 72.2894 227.553 72.2894C225.369 72.2894 223.437 71.8694 221.757 71.0294C220.077 70.1654 218.781 68.9774 217.869 67.4654C216.957 65.9534 216.501 64.2374 216.501 62.3174C216.501 60.4214 216.945 58.7174 217.833 57.2054C218.745 55.6694 219.981 54.4814 221.541 53.6414C223.125 52.7774 224.889 52.3454 226.833 52.3454C228.729 52.3454 230.445 52.7534 231.981 53.5694C233.517 54.3854 234.717 55.5614 235.581 57.0974C236.469 58.6094 236.913 60.3734 236.913 62.3894ZM226.869 56.5934C225.597 56.5934 224.529 56.9534 223.665 57.6734C222.801 58.3934 222.273 59.3774 222.081 60.6254H231.621C231.429 59.4014 230.901 58.4294 230.037 57.7094C229.173 56.9654 228.117 56.5934 226.869 56.5934ZM246.016 55.1894C246.688 54.2534 247.588 53.5454 248.716 53.0654C249.868 52.5854 251.188 52.3454 252.676 52.3454V57.5294C252.052 57.4814 251.632 57.4574 251.416 57.4574C249.808 57.4574 248.548 57.9134 247.636 58.8254C246.724 59.7134 246.268 61.0574 246.268 62.8574V72.0014H240.652V52.6334H246.016V55.1894ZM267.604 52.3454C269.404 52.3454 271.036 52.7654 272.5 53.6054C273.988 54.4214 275.152 55.5854 275.992 57.0974C276.832 58.5854 277.252 60.3254 277.252 62.3174C277.252 64.3094 276.832 66.0614 275.992 67.5734C275.152 69.0614 273.988 70.2254 272.5 71.0654C271.036 71.8814 269.404 72.2894 267.604 72.2894C265.132 72.2894 263.188 71.5094 261.772 69.9494V78.9854H256.156V52.6334H261.52V54.8654C262.912 53.1854 264.94 52.3454 267.604 52.3454ZM266.632 67.6814C268.072 67.6814 269.248 67.2014 270.16 66.2414C271.096 65.2574 271.564 63.9494 271.564 62.3174C271.564 60.6854 271.096 59.3894 270.16 58.4294C269.248 57.4454 268.072 56.9534 266.632 56.9534C265.192 56.9534 264.004 57.4454 263.068 58.4294C262.156 59.3894 261.7 60.6854 261.7 62.3174C261.7 63.9494 262.156 65.2574 263.068 66.2414C264.004 67.2014 265.192 67.6814 266.632 67.6814ZM286.376 55.1894C287.048 54.2534 287.948 53.5454 289.076 53.0654C290.228 52.5854 291.548 52.3454 293.036 52.3454V57.5294C292.412 57.4814 291.992 57.4574 291.776 57.4574C290.168 57.4574 288.908 57.9134 287.996 58.8254C287.084 59.7134 286.628 61.0574 286.628 62.8574V72.0014H281.012V52.6334H286.376V55.1894ZM296.516 52.6334H302.132V72.0014H296.516V52.6334ZM299.324 49.9334C298.292 49.9334 297.452 49.6334 296.804 49.0334C296.156 48.4334 295.832 47.6894 295.832 46.8014C295.832 45.9134 296.156 45.1694 296.804 44.5694C297.452 43.9694 298.292 43.6694 299.324 43.6694C300.356 43.6694 301.196 43.9574 301.844 44.5334C302.492 45.1094 302.816 45.8294 302.816 46.6934C302.816 47.6294 302.492 48.4094 301.844 49.0334C301.196 49.6334 300.356 49.9334 299.324 49.9334ZM313.86 72.2894C312.252 72.2894 310.68 72.0974 309.144 71.7134C307.608 71.3054 306.384 70.8014 305.472 70.2014L307.344 66.1694C308.208 66.7214 309.252 67.1774 310.476 67.5374C311.7 67.8734 312.9 68.0414 314.076 68.0414C316.452 68.0414 317.64 67.4534 317.64 66.2774C317.64 65.7254 317.316 65.3294 316.668 65.0894C316.02 64.8494 315.024 64.6454 313.68 64.4774C312.096 64.2374 310.788 63.9614 309.756 63.6494C308.724 63.3374 307.824 62.7854 307.056 61.9934C306.312 61.2014 305.94 60.0734 305.94 58.6094C305.94 57.3854 306.288 56.3054 306.984 55.3694C307.704 54.4094 308.736 53.6654 310.08 53.1374C311.448 52.6094 313.056 52.3454 314.904 52.3454C316.272 52.3454 317.628 52.5014 318.972 52.8134C320.34 53.1014 321.468 53.5094 322.356 54.0374L320.484 58.0334C318.78 57.0734 316.92 56.5934 314.904 56.5934C313.704 56.5934 312.804 56.7614 312.204 57.0974C311.604 57.4334 311.304 57.8654 311.304 58.3934C311.304 58.9934 311.628 59.4134 312.276 59.6534C312.924 59.8934 313.956 60.1214 315.372 60.3374C316.956 60.6014 318.252 60.8894 319.26 61.2014C320.268 61.4894 321.144 62.0294 321.888 62.8214C322.632 63.6134 323.004 64.7174 323.004 66.1334C323.004 67.3334 322.644 68.4014 321.924 69.3374C321.204 70.2734 320.148 71.0054 318.756 71.5334C317.388 72.0374 315.756 72.2894 313.86 72.2894ZM345.441 62.3894C345.441 62.4614 345.405 62.9654 345.333 63.9014H330.681C330.945 65.1014 331.569 66.0494 332.553 66.7454C333.537 67.4414 334.761 67.7894 336.225 67.7894C337.233 67.7894 338.121 67.6454 338.889 67.3574C339.681 67.0454 340.413 66.5654 341.085 65.9174L344.073 69.1574C342.249 71.2454 339.585 72.2894 336.081 72.2894C333.897 72.2894 331.965 71.8694 330.285 71.0294C328.605 70.1654 327.309 68.9774 326.397 67.4654C325.485 65.9534 325.029 64.2374 325.029 62.3174C325.029 60.4214 325.473 58.7174 326.361 57.2054C327.273 55.6694 328.509 54.4814 330.069 53.6414C331.653 52.7774 333.417 52.3454 335.361 52.3454C337.257 52.3454 338.973 52.7534 340.509 53.5694C342.045 54.3854 343.245 55.5614 344.109 57.0974C344.997 58.6094 345.441 60.3734 345.441 62.3894ZM335.397 56.5934C334.125 56.5934 333.057 56.9534 332.193 57.6734C331.329 58.3934 330.801 59.3774 330.609 60.6254H340.149C339.957 59.4014 339.429 58.4294 338.565 57.7094C337.701 56.9654 336.645 56.5934 335.397 56.5934ZM355.696 72.2894C354.088 72.2894 352.516 72.0974 350.98 71.7134C349.444 71.3054 348.22 70.8014 347.308 70.2014L349.18 66.1694C350.044 66.7214 351.088 67.1774 352.312 67.5374C353.536 67.8734 354.736 68.0414 355.912 68.0414C358.288 68.0414 359.476 67.4534 359.476 66.2774C359.476 65.7254 359.152 65.3294 358.504 65.0894C357.856 64.8494 356.86 64.6454 355.516 64.4774C353.932 64.2374 352.624 63.9614 351.592 63.6494C350.56 63.3374 349.66 62.7854 348.892 61.9934C348.148 61.2014 347.776 60.0734 347.776 58.6094C347.776 57.3854 348.124 56.3054 348.82 55.3694C349.54 54.4094 350.572 53.6654 351.916 53.1374C353.284 52.6094 354.892 52.3454 356.74 52.3454C358.108 52.3454 359.464 52.5014 360.808 52.8134C362.176 53.1014 363.304 53.5094 364.192 54.0374L362.32 58.0334C360.616 57.0734 358.756 56.5934 356.74 56.5934C355.54 56.5934 354.64 56.7614 354.04 57.0974C353.44 57.4334 353.14 57.8654 353.14 58.3934C353.14 58.9934 353.464 59.4134 354.112 59.6534C354.76 59.8934 355.792 60.1214 357.208 60.3374C358.792 60.6014 360.088 60.8894 361.096 61.2014C362.104 61.4894 362.98 62.0294 363.724 62.8214C364.468 63.6134 364.84 64.7174 364.84 66.1334C364.84 67.3334 364.48 68.4014 363.76 69.3374C363.04 70.2734 361.984 71.0054 360.592 71.5334C359.224 72.0374 357.592 72.2894 355.696 72.2894Z" fill="#A0222B"/>
<path d="M57.6404 20.1655H67.0941V107.611H57.6404V20.1655Z" fill="#222BA0"/>
<path d="M62.3674 0.125015L74.1504 20.5338H50.5844L62.3674 0.125015Z" fill="#222BA0"/>
<path d="M82.8904 39.2264H92.3441V107.611H82.8904V39.2264Z" fill="#222BA0"/>
<path d="M87.6174 19.186L99.4004 39.5948H75.8344L87.6174 19.186Z" fill="#222BA0"/>
<path d="M32.3904 39.2264H41.8441V107.611H32.3904V39.2264Z" fill="#222BA0"/>
<path d="M37.1174 19.186L48.9004 39.5948H25.3344L37.1174 19.186Z" fill="#222BA0"/>
<path d="M108.14 59.0928H117.594V107.611H108.14V59.0928Z" fill="#222BA0"/>
<path d="M112.867 39.0523L124.65 59.4611H101.084L112.867 39.0523Z" fill="#222BA0"/>
<path d="M7.14042 59.0928H16.5941V107.611H7.14042V59.0928Z" fill="#222BA0"/>
<path d="M11.8674 39.0523L23.6504 59.4611H0.0843506L11.8674 39.0523Z" fill="#222BA0"/>
</svg>
