<svg id="Layer_1" data-name="Layer 1" xmlns="http://www.w3.org/2000/svg" viewBox="0 0 382.18 148.72"><defs><style>.cls-1{fill:#fff;}</style></defs><title>occ-stacked-white1-tag</title><path class="cls-1" d="M131.53,65.91,65.62,0,.89,64.74H23.32a72.24,72.24,0,0,0,10.09-.55c13.66-1.92,22.43-9.4,27.71-13.28,8.11-6,13.81-10.65,16.48-10.59.86,0,1.18.45,2,1a4.59,4.59,0,0,0,1.91,1,4.23,4.23,0,0,0,1.83-.19C67.26,50.47,59.93,60.28,44.5,64.66c-5,1.4-12.7,1.23-14.43,1.23H0l4.27,4.29H28.61a70.66,70.66,0,0,0,10.08-.55c13.66-1.91,22.43-9.4,27.7-13.28,8.12-6,13.82-10.64,16.48-10.58.87,0,1.18.44,2,1a4.56,4.56,0,0,0,1.91,1,4.08,4.08,0,0,0,1.83-.19C72.54,55.91,65.21,65.73,49.78,70.1c-5,1.4-12.7,1.23-14.43,1.23H5.43l4.28,4.29H33.88A71.79,71.79,0,0,0,44,75.08c13.67-1.92,22.44-9.4,27.71-13.29,8.12-6,13.82-10.64,16.48-10.58.87,0,1.18.44,2,1a4.39,4.39,0,0,0,1.91,1A3.94,3.94,0,0,0,93.89,53c-16.07,8.38-23.4,18.19-38.83,22.56-5,1.4-12.7,1.24-14.43,1.24H10.87l4.29,4.29h24a72.24,72.24,0,0,0,10.09-.55C62.91,78.6,71.67,71.12,77,67.24c8.12-6,13.82-10.65,16.48-10.58.87,0,1.18.44,2,1a4.53,4.53,0,0,0,1.91,1,4.24,4.24,0,0,0,1.83-.19C83.1,66.8,75.77,76.61,60.34,81c-5,1.4-12.71,1.23-14.44,1.23H16.31l4.25,4.25,23.88,0A70.6,70.6,0,0,0,54.52,86C68.18,84.05,77,76.56,82.23,72.68,90.35,66.71,96,62,98.71,62.1c.87,0,1.18.44,2,1a4.65,4.65,0,0,0,1.9,1,4.12,4.12,0,0,0,1.84-.19c-16.07,8.37-23.4,18.19-38.83,22.56-5,1.4-12.71,1.24-14.44,1.24H21.76l44,44Z"/><path class="cls-1" d="M150.37,30.07a13.65,13.65,0,0,1,1-5.31,11.78,11.78,0,0,1,2.73-4,12.29,12.29,0,0,1,4.15-2.56,15.09,15.09,0,0,1,5.24-.89,15.35,15.35,0,0,1,5.3.89A12.42,12.42,0,0,1,173,20.73a11.69,11.69,0,0,1,2.75,4,13.84,13.84,0,0,1,1,5.31,13.66,13.66,0,0,1-1,5.24A12.19,12.19,0,0,1,173,39.39a12.5,12.5,0,0,1-4.18,2.66,14.27,14.27,0,0,1-5.3,1,14,14,0,0,1-5.24-1,12.05,12.05,0,0,1-6.88-6.74,13.48,13.48,0,0,1-1-5.24m4.73,0a10.44,10.44,0,0,0,.61,3.61,8.37,8.37,0,0,0,1.73,2.86,8.09,8.09,0,0,0,2.66,1.88,8.41,8.41,0,0,0,3.41.68,8.52,8.52,0,0,0,3.42-.68,8,8,0,0,0,2.68-1.88,8.37,8.37,0,0,0,1.73-2.86,10.44,10.44,0,0,0,.61-3.61,10.14,10.14,0,0,0-.61-3.53,8.44,8.44,0,0,0-1.71-2.83A8.11,8.11,0,0,0,167,21.8a8.45,8.45,0,0,0-3.46-.69,8.29,8.29,0,0,0-3.44.69,8.07,8.07,0,0,0-2.65,1.91,8.44,8.44,0,0,0-1.71,2.83,10.14,10.14,0,0,0-.61,3.53"/><path class="cls-1" d="M187.5,17.9h3.77l10.55,24.48h-5l-2.29-5.6H183.94l-2.22,5.6h-4.87ZM193,33l-3.77-10-3.83,10Z"/><polygon class="cls-1" points="204.46 17.9 208.82 17.9 208.82 28.48 208.92 28.48 219.16 17.9 225.03 17.9 213.59 29.2 225.8 42.38 219.68 42.38 208.92 30.1 208.82 30.1 208.82 42.38 204.46 42.38 204.46 17.9"/><polygon class="cls-1" points="228.47 17.9 232.83 17.9 232.83 38.51 243.24 38.51 243.24 42.38 228.47 42.38 228.47 17.9"/><path class="cls-1" d="M255.29,17.9h3.77L269.6,42.38h-5l-2.28-5.6H251.72l-2.21,5.6h-4.88ZM260.82,33l-3.77-10-3.84,10Z"/><polygon class="cls-1" points="272.25 17.9 278.02 17.9 289.4 36.23 289.47 36.23 289.47 17.9 293.82 17.9 293.82 42.38 288.29 42.38 276.67 23.46 276.6 23.46 276.6 42.38 272.25 42.38 272.25 17.9"/><path class="cls-1" d="M299.29,17.9H308a19.4,19.4,0,0,1,4.8.62,12.26,12.26,0,0,1,4.36,2.06,10.73,10.73,0,0,1,3.15,3.77,12.41,12.41,0,0,1,1.21,5.79,11.76,11.76,0,0,1-1.21,5.53,11.44,11.44,0,0,1-3.15,3.81,13.06,13.06,0,0,1-4.36,2.19,16.72,16.72,0,0,1-4.8.71h-8.68Zm8,20.68a14.39,14.39,0,0,0,3.38-.4,8.85,8.85,0,0,0,3.07-1.35A7.14,7.14,0,0,0,316,34.25a8.76,8.76,0,0,0,.86-4.11,9.38,9.38,0,0,0-.86-4.29,6.93,6.93,0,0,0-2.23-2.59A8.38,8.38,0,0,0,310.66,22a16.79,16.79,0,0,0-3.38-.35h-3.64v17Z"/><path class="cls-1" d="M169.21,59.37a5.61,5.61,0,0,0-2.52-1.92,8.51,8.51,0,0,0-6.5.09,8,8,0,0,0-2.68,1.9,8.37,8.37,0,0,0-1.73,2.84,9.86,9.86,0,0,0-.61,3.52,11,11,0,0,0,.59,3.67,8.09,8.09,0,0,0,1.68,2.85,7.27,7.27,0,0,0,2.61,1.85,8.48,8.48,0,0,0,3.42.66,7.58,7.58,0,0,0,3.5-.78A6.77,6.77,0,0,0,169.42,72l3.5,2.46a11.24,11.24,0,0,1-4,3.16,12.62,12.62,0,0,1-5.5,1.13,14.37,14.37,0,0,1-5.28-.95A11.93,11.93,0,0,1,151.34,71a13.62,13.62,0,0,1-1-5.24,13.29,13.29,0,0,1,1-5.3,11.71,11.71,0,0,1,2.8-4,12.35,12.35,0,0,1,4.2-2.56,15,15,0,0,1,5.26-.9,14.11,14.11,0,0,1,2.45.22,12.15,12.15,0,0,1,2.46.7,11.35,11.35,0,0,1,2.21,1.16,6.93,6.93,0,0,1,1.76,1.65Z"/><path class="cls-1" d="M173.82,65.8a13.64,13.64,0,0,1,1-5.3,11.42,11.42,0,0,1,2.73-4,12,12,0,0,1,4.15-2.56,14.82,14.82,0,0,1,5.24-.9,15.1,15.1,0,0,1,5.29.9,12.17,12.17,0,0,1,4.18,2.56,11.46,11.46,0,0,1,2.75,4,13.64,13.64,0,0,1,1,5.3,13.44,13.44,0,0,1-1,5.24,12,12,0,0,1-2.75,4.08,12.42,12.42,0,0,1-4.18,2.67,14.46,14.46,0,0,1-5.29.95,14.19,14.19,0,0,1-5.24-.95,12.2,12.2,0,0,1-4.15-2.67A12,12,0,0,1,174.81,71a13.44,13.44,0,0,1-1-5.24m4.74,0a10.49,10.49,0,0,0,.6,3.62,8.58,8.58,0,0,0,1.73,2.85,8,8,0,0,0,2.66,1.89,8.61,8.61,0,0,0,3.41.67,8.71,8.71,0,0,0,3.43-.67,8,8,0,0,0,2.68-1.89,8.56,8.56,0,0,0,1.72-2.85,10.26,10.26,0,0,0,.61-3.62,9.86,9.86,0,0,0-.61-3.52,8.49,8.49,0,0,0-1.71-2.84,7.84,7.84,0,0,0-2.66-1.9,8.45,8.45,0,0,0-3.46-.69,8.32,8.32,0,0,0-3.44.69,7.9,7.9,0,0,0-2.65,1.9,8.83,8.83,0,0,0-1.71,2.84,10.09,10.09,0,0,0-.6,3.52"/><polygon class="cls-1" points="204.34 53.63 211.15 53.63 217.51 71.03 217.62 71.03 223.91 53.63 230.76 53.63 230.76 78.11 226.44 78.11 226.44 58.44 226.37 58.44 218.93 78.11 215.89 78.11 208.56 58.44 208.49 58.44 208.49 78.11 204.34 78.11 204.34 53.63"/><polygon class="cls-1" points="236.24 53.63 243.05 53.63 249.41 71.03 249.52 71.03 255.81 53.63 262.66 53.63 262.66 78.11 258.34 78.11 258.34 58.44 258.27 58.44 250.83 78.11 247.79 78.11 240.46 58.44 240.39 58.44 240.39 78.11 236.24 78.11 236.24 53.63"/><path class="cls-1" d="M287.69,69.12a10.22,10.22,0,0,1-.76,4,8.9,8.9,0,0,1-2.08,3,9,9,0,0,1-3.11,1.92,11.58,11.58,0,0,1-7.82,0,9.18,9.18,0,0,1-3.13-1.92,8.6,8.6,0,0,1-2.07-3,10.22,10.22,0,0,1-.74-4V53.63h4.35V69a8.15,8.15,0,0,0,.28,2.13,5.22,5.22,0,0,0,.91,1.88,4.68,4.68,0,0,0,1.7,1.35,6.81,6.81,0,0,0,5.22,0,4.68,4.68,0,0,0,1.7-1.35,5.22,5.22,0,0,0,.91-1.88,8.15,8.15,0,0,0,.28-2.13V53.63h4.36Z"/><polygon class="cls-1" points="292.98 53.63 298.76 53.63 310.14 71.96 310.21 71.96 310.21 53.63 314.56 53.63 314.56 78.11 309.03 78.11 297.41 59.2 297.34 59.2 297.34 78.11 292.98 78.11 292.98 53.63"/><rect class="cls-1" x="320.02" y="53.63" width="4.36" height="24.48"/><polygon class="cls-1" points="334.73 57.44 327.22 57.44 327.22 53.63 346.59 53.63 346.59 57.44 339.08 57.44 339.08 78.11 334.73 78.11 334.73 57.44"/><polygon class="cls-1" points="356.99 67.5 347.8 53.63 353.12 53.63 359.28 63.94 365.5 53.63 370.55 53.63 361.35 67.5 361.35 78.12 356.99 78.12 356.99 67.5"/><path class="cls-1" d="M169.21,95.11a5.48,5.48,0,0,0-2.52-1.92,8.24,8.24,0,0,0-3-.61,8.42,8.42,0,0,0-3.46.69,8,8,0,0,0-2.68,1.91A8.33,8.33,0,0,0,155.78,98a9.92,9.92,0,0,0-.61,3.53,10.89,10.89,0,0,0,.59,3.66,8.23,8.23,0,0,0,1.68,2.86,7.52,7.52,0,0,0,2.61,1.85,8.48,8.48,0,0,0,3.42.65,7.58,7.58,0,0,0,3.5-.77,6.87,6.87,0,0,0,2.45-2.06l3.5,2.45a11.26,11.26,0,0,1-4,3.17,12.62,12.62,0,0,1-5.5,1.12,14.37,14.37,0,0,1-5.28-1,11.87,11.87,0,0,1-6.82-6.74,13.66,13.66,0,0,1-1-5.24,13.3,13.3,0,0,1,1-5.31,11.81,11.81,0,0,1,2.8-4,12.51,12.51,0,0,1,4.2-2.56,15,15,0,0,1,5.26-.9,14.15,14.15,0,0,1,2.45.23,12.81,12.81,0,0,1,2.46.69,11.92,11.92,0,0,1,2.21,1.16,7,7,0,0,1,1.76,1.66Z"/><path class="cls-1" d="M173.82,101.54a13.65,13.65,0,0,1,1-5.31,11.51,11.51,0,0,1,2.73-4,12.1,12.1,0,0,1,4.15-2.56,14.82,14.82,0,0,1,5.24-.9,15.1,15.1,0,0,1,5.29.9,12.32,12.32,0,0,1,4.18,2.56,11.55,11.55,0,0,1,2.75,4,13.65,13.65,0,0,1,1,5.31,13.48,13.48,0,0,1-1,5.24,12,12,0,0,1-2.75,4.08,12.4,12.4,0,0,1-4.18,2.66,14.46,14.46,0,0,1-5.29,1,14.19,14.19,0,0,1-5.24-1,12.17,12.17,0,0,1-4.15-2.66,12,12,0,0,1-2.73-4.08,13.48,13.48,0,0,1-1-5.24m4.74,0a10.44,10.44,0,0,0,.6,3.61,8.53,8.53,0,0,0,1.73,2.86,8.09,8.09,0,0,0,2.66,1.88,8.44,8.44,0,0,0,3.41.67,8.53,8.53,0,0,0,3.43-.67,8.07,8.07,0,0,0,2.68-1.88,8.5,8.5,0,0,0,1.72-2.86,10.21,10.21,0,0,0,.61-3.61,9.92,9.92,0,0,0-.61-3.53,8.44,8.44,0,0,0-1.71-2.83,7.87,7.87,0,0,0-2.66-1.91,8.45,8.45,0,0,0-3.46-.69,8.32,8.32,0,0,0-3.44.69,7.93,7.93,0,0,0-2.65,1.91A8.78,8.78,0,0,0,179.16,98a10.14,10.14,0,0,0-.6,3.53"/><polygon class="cls-1" points="204.34 89.37 208.69 89.37 208.69 109.98 219.1 109.98 219.1 113.85 204.34 113.85 204.34 89.37"/><polygon class="cls-1" points="221.97 89.37 226.32 89.37 226.32 109.98 236.73 109.98 236.73 113.85 221.97 113.85 221.97 89.37"/><polygon class="cls-1" points="239.6 89.37 255.81 89.37 255.81 93.17 243.95 93.17 243.95 99.39 255.19 99.39 255.19 103.06 243.95 103.06 243.95 109.98 256.44 109.98 256.44 113.85 239.6 113.85 239.6 89.37"/><path class="cls-1" d="M281.69,112.57a18.66,18.66,0,0,1-4.1,1.4,23.85,23.85,0,0,1-5.13.5,14.74,14.74,0,0,1-5.43-1,12.28,12.28,0,0,1-4.22-2.66,12,12,0,0,1-2.75-4.08,13.48,13.48,0,0,1-1-5.24,13.3,13.3,0,0,1,1-5.31,12,12,0,0,1,2.8-4,12.56,12.56,0,0,1,4.21-2.56,14.92,14.92,0,0,1,5.25-.9,16.45,16.45,0,0,1,5.38.85,11,11,0,0,1,3.92,2.23l-3,3.25A7.52,7.52,0,0,0,276,93.31a9,9,0,0,0-3.65-.73,8.66,8.66,0,0,0-3.51.69,7.89,7.89,0,0,0-2.68,1.91A8.63,8.63,0,0,0,264.48,98a10.14,10.14,0,0,0-.6,3.53,10.44,10.44,0,0,0,.6,3.61,8.69,8.69,0,0,0,1.73,2.86,7.92,7.92,0,0,0,2.74,1.88,9.3,9.3,0,0,0,3.64.67,12.55,12.55,0,0,0,4.88-.86v-6.22h-5.15v-3.6h9.37Z"/><polygon class="cls-1" points="286.96 89.37 303.18 89.37 303.18 93.17 291.31 93.17 291.31 99.39 302.55 99.39 302.55 103.06 291.31 103.06 291.31 109.98 303.8 109.98 303.8 113.85 286.96 113.85 286.96 89.37"/><polygon class="cls-1" points="150.62 126.96 150.62 143.23 159.78 143.23 159.78 141.76 152.08 141.76 152.08 135.48 159.05 135.48 159.05 134.01 152.08 134.01 152.08 128.43 159.54 128.43 159.54 126.96 150.62 126.96"/><polygon class="cls-1" points="164.8 137.67 161.28 132.47 163.05 132.47 165.65 136.56 168.26 132.47 169.92 132.47 166.47 137.6 170.25 143.23 168.46 143.23 165.63 138.75 162.73 143.23 161.06 143.23 164.8 137.67"/><path class="cls-1" d="M179.13,134.93a2.82,2.82,0,0,0-1-1,2.69,2.69,0,0,0-1.43-.4,3.31,3.31,0,0,0-1.5.33,3.42,3.42,0,0,0-1.15.92,4.34,4.34,0,0,0-.74,1.38,5.89,5.89,0,0,0-.25,1.71,5.77,5.77,0,0,0,.25,1.7,4.6,4.6,0,0,0,.73,1.37,3.41,3.41,0,0,0,1.14.92,3.31,3.31,0,0,0,1.5.33,2.86,2.86,0,0,0,1.54-.39,3.34,3.34,0,0,0,1-1l1,.87a4.75,4.75,0,0,1-1.5,1.36,4.19,4.19,0,0,1-2.12.51,5.12,5.12,0,0,1-2.1-.43A4.66,4.66,0,0,1,173,141.9a5.68,5.68,0,0,1-1-1.8,7.21,7.21,0,0,1,0-4.5,5.52,5.52,0,0,1,1-1.79,4.68,4.68,0,0,1,1.59-1.19,5.11,5.11,0,0,1,2.1-.42,4.39,4.39,0,0,1,1.94.47,3.91,3.91,0,0,1,1.6,1.39Z"/><path class="cls-1" d="M191.22,137.53v.34c0,.13,0,.26,0,.39h-7.89a4.72,4.72,0,0,0,.29,1.52,3.91,3.91,0,0,0,.73,1.24,3.62,3.62,0,0,0,1.1.84,3,3,0,0,0,1.36.31,3.13,3.13,0,0,0,1.86-.56,4,4,0,0,0,1.19-1.3l1,.92A5.25,5.25,0,0,1,189,143a4.68,4.68,0,0,1-2.21.53,4.6,4.6,0,0,1-2-.42,4.5,4.5,0,0,1-1.55-1.19,5.52,5.52,0,0,1-1-1.79,6.94,6.94,0,0,1,0-4.5,5.48,5.48,0,0,1,1-1.79,4.87,4.87,0,0,1,1.53-1.19,4.29,4.29,0,0,1,1.89-.42,4.42,4.42,0,0,1,2,.42,4.21,4.21,0,0,1,1.42,1.15,5.2,5.2,0,0,1,.87,1.69,7.24,7.24,0,0,1,.29,2.07m-1.4-.51a4.11,4.11,0,0,0-.87-2.51,2.73,2.73,0,0,0-2.28-1,2.89,2.89,0,0,0-1.28.28,3.5,3.5,0,0,0-1,.79,4,4,0,0,0-.71,1.12,3.74,3.74,0,0,0-.3,1.32Z"/><rect class="cls-1" x="194.23" y="125.85" width="1.38" height="17.37"/><rect class="cls-1" x="199.35" y="125.85" width="1.38" height="17.37"/><path class="cls-1" d="M212.93,137.53v.34a2.56,2.56,0,0,1,0,.39H205a4.71,4.71,0,0,0,.28,1.52A3.75,3.75,0,0,0,206,141a3.58,3.58,0,0,0,1.09.84,3,3,0,0,0,1.36.31,3.18,3.18,0,0,0,1.87-.56,4,4,0,0,0,1.18-1.3l1,.92A5.36,5.36,0,0,1,210.7,143a4.83,4.83,0,0,1-4.17.11,4.5,4.5,0,0,1-1.55-1.19,5.71,5.71,0,0,1-1-1.79,6.56,6.56,0,0,1-.37-2.25,6.81,6.81,0,0,1,.36-2.25,5.5,5.5,0,0,1,1-1.79,4.72,4.72,0,0,1,1.52-1.19,4.64,4.64,0,0,1,3.86,0,4.25,4.25,0,0,1,1.43,1.15,5.19,5.19,0,0,1,.86,1.69,6.91,6.91,0,0,1,.3,2.07m-1.41-.51a4.17,4.17,0,0,0-.86-2.51,2.75,2.75,0,0,0-2.29-1,2.92,2.92,0,0,0-1.28.28,3.46,3.46,0,0,0-1,.79,4,4,0,0,0-.72,1.12A4.23,4.23,0,0,0,205,137Z"/><path class="cls-1" d="M217,132.47c0,.29,0,.61.06,1s0,.64,0,.87h0a3.36,3.36,0,0,1,1.32-1.53,3.54,3.54,0,0,1,1.93-.58,3.16,3.16,0,0,1,2.72,1.22,5.27,5.27,0,0,1,.9,3.21v6.6H222.6v-5.95a9.21,9.21,0,0,0-.12-1.55,3.43,3.43,0,0,0-.42-1.18,2.16,2.16,0,0,0-.79-.77,2.6,2.6,0,0,0-1.25-.27,2.4,2.4,0,0,0-1.07.25,2.77,2.77,0,0,0-.92.77,3.92,3.92,0,0,0-.65,1.31,6.14,6.14,0,0,0-.25,1.87v5.52h-1.38v-8.39c0-.29,0-.67,0-1.13s0-.87-.06-1.24Z"/><path class="cls-1" d="M234.29,134.93a2.82,2.82,0,0,0-1-1,2.69,2.69,0,0,0-1.43-.4,3.38,3.38,0,0,0-1.51.33,3.52,3.52,0,0,0-1.15.92,4.33,4.33,0,0,0-.73,1.38,5.57,5.57,0,0,0-.25,1.71,5.46,5.46,0,0,0,.25,1.7,4.36,4.36,0,0,0,.72,1.37,3.62,3.62,0,0,0,1.14.92,3.38,3.38,0,0,0,1.51.33,2.86,2.86,0,0,0,1.54-.39,3.34,3.34,0,0,0,1-1l1,.87A4.61,4.61,0,0,1,234,143a4.19,4.19,0,0,1-2.12.51,5.12,5.12,0,0,1-2.1-.43,4.66,4.66,0,0,1-1.59-1.18,5.5,5.5,0,0,1-1-1.8,7.21,7.21,0,0,1,0-4.5,5.35,5.35,0,0,1,1-1.79,4.68,4.68,0,0,1,1.59-1.19,5.11,5.11,0,0,1,2.1-.42,4.42,4.42,0,0,1,1.94.47,3.88,3.88,0,0,1,1.59,1.39Z"/><path class="cls-1" d="M246.26,137.53v.34a2.56,2.56,0,0,1,0,.39h-7.88a4.71,4.71,0,0,0,.28,1.52,3.93,3.93,0,0,0,.74,1.24,3.58,3.58,0,0,0,1.09.84,3,3,0,0,0,1.36.31,3.18,3.18,0,0,0,1.87-.56,4,4,0,0,0,1.18-1.3l1,.92A5.36,5.36,0,0,1,244,143a4.65,4.65,0,0,1-2.21.53,4.55,4.55,0,0,1-1.95-.42,4.45,4.45,0,0,1-1.56-1.19,5.71,5.71,0,0,1-1-1.79,6.56,6.56,0,0,1-.37-2.25,6.81,6.81,0,0,1,.36-2.25,5.5,5.5,0,0,1,1-1.79,4.72,4.72,0,0,1,1.52-1.19,4.32,4.32,0,0,1,1.89-.42,4.44,4.44,0,0,1,2,.42,4.31,4.31,0,0,1,1.42,1.15,5,5,0,0,1,.86,1.69,6.91,6.91,0,0,1,.3,2.07m-1.41-.51a4.1,4.1,0,0,0-.86-2.51,2.75,2.75,0,0,0-2.29-1,2.92,2.92,0,0,0-1.28.28,3.46,3.46,0,0,0-1,.79,3.74,3.74,0,0,0-.71,1.12,4,4,0,0,0-.31,1.32Z"/><polygon class="cls-1" points="253.01 143.23 255.55 126.96 264.61 126.96 264.23 129.44 257.6 129.44 256.95 133.65 263.27 133.65 262.88 136.04 256.58 136.04 255.85 140.7 263.05 140.7 262.66 143.23 253.01 143.23"/><path class="cls-1" d="M266.31,133.44c.06-.46.11-.88.13-1.24h2.24c0,.17,0,.43-.08.8s-.08.68-.1.92h0a5.13,5.13,0,0,1,1.16-1.4,2.75,2.75,0,0,1,1.84-.62,3,3,0,0,1,2,.61,2.74,2.74,0,0,1,1,1.55,5.17,5.17,0,0,1,1.48-1.59,3.49,3.49,0,0,1,2-.57,3.62,3.62,0,0,1,1.46.27,3,3,0,0,1,1,.74A2.71,2.71,0,0,1,281,134a4.44,4.44,0,0,1,.2,1.32,5.44,5.44,0,0,1-.09,1L280,143.23h-2.38l.93-6.07c0-.18.06-.37.08-.55a5.07,5.07,0,0,0,0-.55,3.29,3.29,0,0,0-.08-.71,1.74,1.74,0,0,0-.27-.6,1.39,1.39,0,0,0-.5-.42,1.8,1.8,0,0,0-.78-.16,2,2,0,0,0-1,.28,3.07,3.07,0,0,0-.78.71,4,4,0,0,0-.54,1,5.28,5.28,0,0,0-.28,1.07l-.94,6h-2.39l1-6.67a3.59,3.59,0,0,0,.06-.62,2.1,2.1,0,0,0-.36-1.27,1.33,1.33,0,0,0-1.14-.5,1.89,1.89,0,0,0-1,.27,2.84,2.84,0,0,0-.76.67,4.05,4.05,0,0,0-.54,1,4.75,4.75,0,0,0-.29,1.09l-1,6.07H264.8l1.34-8.66c.05-.3.11-.67.17-1.13"/><path class="cls-1" d="M284.37,148.72H282l2.58-16.52h2.26l-.25,1.77h.06a4.25,4.25,0,0,1,1.51-1.5,4,4,0,0,1,2-.53,4.1,4.1,0,0,1,1.7.35,3.58,3.58,0,0,1,1.3,1,4.73,4.73,0,0,1,.83,1.5,5.92,5.92,0,0,1,.29,1.93,8.88,8.88,0,0,1-.39,2.67,7.17,7.17,0,0,1-1.11,2.17,5.31,5.31,0,0,1-1.7,1.47,4.41,4.41,0,0,1-2.16.54,3.82,3.82,0,0,1-2.17-.56,3.49,3.49,0,0,1-1.24-1.53h-.05ZM291.83,137a3.32,3.32,0,0,0-.62-2,2.13,2.13,0,0,0-1.78-.82,2.73,2.73,0,0,0-1.34.35,3.34,3.34,0,0,0-1.09.93,4.47,4.47,0,0,0-.72,1.39,5.11,5.11,0,0,0-.27,1.66,3.13,3.13,0,0,0,.67,2.06,2.23,2.23,0,0,0,1.81.81,2.83,2.83,0,0,0,1.38-.35,3.33,3.33,0,0,0,1.05-.93,4.17,4.17,0,0,0,.67-1.37,5.8,5.8,0,0,0,.24-1.69"/><path class="cls-1" d="M300.63,143.53a5,5,0,0,1-1.88-.35,4.27,4.27,0,0,1-1.5-1,4.43,4.43,0,0,1-1-1.51,5.11,5.11,0,0,1-.36-2,7.93,7.93,0,0,1,.42-2.58,6.82,6.82,0,0,1,1.19-2.17,5.81,5.81,0,0,1,1.86-1.51,5.24,5.24,0,0,1,2.43-.56,5,5,0,0,1,1.89.34,4.39,4.39,0,0,1,1.5,1,4.55,4.55,0,0,1,1,1.52,5.27,5.27,0,0,1,.35,1.94,8.13,8.13,0,0,1-.42,2.62,6.74,6.74,0,0,1-1.18,2.18,5.57,5.57,0,0,1-1.88,1.49,5.3,5.3,0,0,1-2.43.56m3.51-6.57a3.09,3.09,0,0,0-.67-2.05,2.26,2.26,0,0,0-1.83-.81,2.72,2.72,0,0,0-1.39.36,3.58,3.58,0,0,0-1.06,1,4.68,4.68,0,0,0-.68,1.38,5.65,5.65,0,0,0-.24,1.66,3.11,3.11,0,0,0,.65,2,2.2,2.2,0,0,0,1.83.81,3,3,0,0,0,1.4-.34,3.35,3.35,0,0,0,1.07-.95,4.68,4.68,0,0,0,.68-1.4,5.71,5.71,0,0,0,.24-1.67"/><polygon class="cls-1" points="318.88 143.23 316.44 143.23 315.56 135.44 315.52 135.44 311.88 143.23 309.44 143.23 308.1 132.2 310.61 132.2 311.28 140.13 311.32 140.13 314.81 132.2 317.31 132.2 318.1 140.13 318.14 140.13 321.68 132.2 324.18 132.2 318.88 143.23"/><path class="cls-1" d="M326.4,138.56a1,1,0,0,0,0,.26,2.6,2.6,0,0,0,.2,1,2.41,2.41,0,0,0,.54.79,2.64,2.64,0,0,0,.81.53,2.61,2.61,0,0,0,1,.19,3.07,3.07,0,0,0,1.59-.39,4.35,4.35,0,0,0,1.19-1l1.36,1.44a5.5,5.5,0,0,1-4.41,2.21,5,5,0,0,1-1.83-.33,4.24,4.24,0,0,1-2.4-2.48,5.86,5.86,0,0,1-.34-2.08,8.15,8.15,0,0,1,.42-2.66,7.22,7.22,0,0,1,1.19-2.15,5.54,5.54,0,0,1,1.81-1.43,5,5,0,0,1,2.29-.52,4.75,4.75,0,0,1,1.62.27,3.67,3.67,0,0,1,1.29.83,3.84,3.84,0,0,1,.85,1.38,5.67,5.67,0,0,1,.3,1.93c0,.24,0,.59-.06,1a10.67,10.67,0,0,1-.18,1.23Zm5.28-1.93,0-.3a2.44,2.44,0,0,0,0-.27,2.21,2.21,0,0,0-.56-1.52,2,2,0,0,0-1.57-.62,2.65,2.65,0,0,0-1.14.25,3.22,3.22,0,0,0-.89.66,4.12,4.12,0,0,0-.62.88,3.37,3.37,0,0,0-.32.92Z"/><path class="cls-1" d="M339.14,134a5.13,5.13,0,0,1,1.2-1.56,2.47,2.47,0,0,1,1.66-.58h.31a1.06,1.06,0,0,1,.28.06l-.32,2.5a2.46,2.46,0,0,0-.4-.09,1.83,1.83,0,0,0-.33,0,2.43,2.43,0,0,0-1.36.34,3,3,0,0,0-.86.83,3.44,3.44,0,0,0-.47,1,7.35,7.35,0,0,0-.18.8l-.91,5.91h-2.38l1.36-8.67c.05-.29.11-.66.17-1.12s.11-.87.13-1.24h2.24c0,.07,0,.19,0,.34s0,.33-.05.51l-.06.54c0,.17,0,.32,0,.45Z"/><path class="cls-1" d="M345.19,138.56a2,2,0,0,0,0,.26,2.6,2.6,0,0,0,.2,1,2.14,2.14,0,0,0,.54.79,2.53,2.53,0,0,0,.81.53,2.59,2.59,0,0,0,1,.19,3.08,3.08,0,0,0,1.6-.39,4.5,4.5,0,0,0,1.19-1l1.36,1.44a5.53,5.53,0,0,1-4.41,2.21,5,5,0,0,1-1.83-.33,4.09,4.09,0,0,1-1.44-1,4.29,4.29,0,0,1-1-1.52,5.86,5.86,0,0,1-.34-2.08,8.15,8.15,0,0,1,.42-2.66,7,7,0,0,1,1.19-2.15,5.44,5.44,0,0,1,1.81-1.43,5,5,0,0,1,2.29-.52,4.65,4.65,0,0,1,1.61.27,3.5,3.5,0,0,1,1.29.83,3.72,3.72,0,0,1,.86,1.38,5.67,5.67,0,0,1,.3,1.93c0,.24,0,.59-.06,1a10.67,10.67,0,0,1-.18,1.23Zm5.29-1.93,0-.3c0-.09,0-.18,0-.27a2.21,2.21,0,0,0-.56-1.52,2,2,0,0,0-1.57-.62,2.62,2.62,0,0,0-1.14.25,3.08,3.08,0,0,0-.89.66,4.12,4.12,0,0,0-.62.88,3.37,3.37,0,0,0-.32.92Z"/><path class="cls-1" d="M364,125.88h2.4l-2.72,17.35h-2.26l.25-1.75h-.06a4.33,4.33,0,0,1-1.51,1.5,4,4,0,0,1-2,.53,4.1,4.1,0,0,1-1.7-.35,3.67,3.67,0,0,1-1.3-1,4.54,4.54,0,0,1-.83-1.5,6,6,0,0,1-.29-1.93,8.88,8.88,0,0,1,.39-2.67,6.84,6.84,0,0,1,1.11-2.17,5.38,5.38,0,0,1,1.69-1.47,4.45,4.45,0,0,1,2.17-.54,3.78,3.78,0,0,1,2.16.56,3.44,3.44,0,0,1,1.25,1.53h.05Zm-7.6,12.55a3.32,3.32,0,0,0,.62,2,2.11,2.11,0,0,0,1.78.83,2.73,2.73,0,0,0,1.34-.35,3.47,3.47,0,0,0,1.09-.93,4.94,4.94,0,0,0,.72-1.39,5.11,5.11,0,0,0,.27-1.66,3.08,3.08,0,0,0-.68-2.06,2.21,2.21,0,0,0-1.8-.81,2.83,2.83,0,0,0-1.38.35,3.33,3.33,0,0,0-1.05.93,4,4,0,0,0-.67,1.37,5.78,5.78,0,0,0-.24,1.68"/><path class="cls-1" d="M367.33,141.62a1.79,1.79,0,0,1,.47-1.26,1.47,1.47,0,0,1,1.15-.53,1.56,1.56,0,0,1,1.14.5,1.7,1.7,0,0,1,.49,1.24,1.83,1.83,0,0,1-.48,1.27,1.51,1.51,0,0,1-1.15.53,1.48,1.48,0,0,1-.62-.14,1.9,1.9,0,0,1-.52-.37,1.73,1.73,0,0,1-.35-.55,1.8,1.8,0,0,1-.13-.69"/><path class="cls-1" d="M311.73,87.75a3.47,3.47,0,1,1-3.5,3.49A3.48,3.48,0,0,1,311.73,87.75Zm0,6.44a2.95,2.95,0,1,0-3-3A3,3,0,0,0,311.73,94.19Zm.84-1-.84-1.52h-.55v1.52h-.94V89.23h1.69c.72,0,1.49.29,1.49,1.22a1.09,1.09,0,0,1-.78,1l1,1.66ZM311.9,91a.55.55,0,0,0,.57-.51c0-.32-.34-.46-.57-.46h-.72v1Z"/><path class="cls-1" d="M378.68,124.26a3.47,3.47,0,1,1-3.51,3.48A3.49,3.49,0,0,1,378.68,124.26Zm0,6.43a2.95,2.95,0,1,0-2.95-3A3,3,0,0,0,378.68,130.69Zm.84-1-.84-1.52h-.56v1.52h-.93v-3.93h1.69c.72,0,1.49.29,1.49,1.23a1.09,1.09,0,0,1-.79,1l1.05,1.66Zm-.67-2.19a.54.54,0,0,0,.56-.51c0-.32-.33-.46-.56-.46h-.73v1Z"/></svg>