<svg width="604" height="232" viewBox="0 0 604 232" fill="none" xmlns="http://www.w3.org/2000/svg">
<path d="M189 183H124V191.865C105.112 193.176 86.9972 195.958 70.7728 200.084C57.613 203.431 46.0242 207.579 36.4063 212.342L36.4324 212.363C33.8099 213.774 32.0518 215.521 31.3467 217.428C30.5787 219.505 31.0929 221.683 32.827 223.698C34.5612 225.713 37.4413 227.48 41.1194 228.784C44.7976 230.089 49.1164 230.876 53.5543 231.05L53.5543 231.048L53.5596 231.049C58.9348 229.594 64.6857 228.259 70.7728 227.056C94.5507 222.359 122.39 219.904 150.769 220.003C152.516 220.009 154.26 220.025 156 220.05V220.059L156.311 220.055L156.623 220.059V220.05C158.363 220.025 160.107 220.009 161.854 220.003C190.233 219.904 218.072 222.359 241.85 227.056C247.937 228.259 253.688 229.594 259.063 231.049L259.069 231.048V231.05C263.507 230.876 267.825 230.089 271.503 228.784C275.182 227.48 278.062 225.713 279.796 223.698C281.53 221.683 282.044 219.505 281.276 217.428C280.571 215.521 278.813 213.774 276.191 212.363L276.217 212.342C266.599 207.579 255.01 203.431 241.85 200.084C225.734 195.985 207.752 193.213 189 191.891V183Z" fill="#CCCCCC"/>
<rect x="0.5" y="13.5" width="311" height="174" fill="#CCCCCC" stroke="#CDCACA"/>
<rect x="14" y="26" width="285" height="148" fill="#525252"/>
<rect x="226" y="106" width="56" height="56" fill="#F58235"/>
<path fill-rule="evenodd" clip-rule="evenodd" d="M275.817 154.928C273.434 146.933 266.027 141.104 257.258 141.104H250.571C241.781 141.104 234.358 146.962 231.995 154.987L232.608 162H275.198L275.817 154.928Z" fill="#D7E1F2"/>
<circle cx="253.861" cy="125.224" r="12.8159" fill="#D7E1F2"/>
<rect x="226" y="39" width="56" height="56" fill="#D71920"/>
<path fill-rule="evenodd" clip-rule="evenodd" d="M275.817 87.9279C273.434 79.9334 266.027 74.1045 257.258 74.1045H250.571C241.781 74.1045 234.358 79.9621 231.995 87.987L232.608 95H275.198L275.817 87.9279Z" fill="#D7E1F2"/>
<circle cx="253.861" cy="58.2239" r="12.8159" fill="#D7E1F2"/>
<rect x="31" y="106" width="56" height="56" fill="#50A5DC"/>
<path fill-rule="evenodd" clip-rule="evenodd" d="M80.8168 154.928C78.4341 146.933 71.0266 141.104 62.2577 141.104H55.5711C46.7807 141.104 39.3583 146.962 36.9945 154.987L37.6081 162H80.1981L80.8168 154.928Z" fill="#D7E1F2"/>
<circle cx="58.8607" cy="125.224" r="12.8159" fill="#D7E1F2"/>
<rect x="31" y="39" width="56" height="56" fill="#54B948"/>
<path fill-rule="evenodd" clip-rule="evenodd" d="M80.8168 87.9279C78.4341 79.9334 71.0266 74.1045 62.2577 74.1045H55.5711C46.7807 74.1045 39.3583 79.9621 36.9945 87.987L37.6081 95H80.1981L80.8168 87.9279Z" fill="#D7E1F2"/>
<circle cx="58.8607" cy="58.2239" r="12.8159" fill="#D7E1F2"/>
<path d="M83.1485 139C85.8002 134.26 87.1297 128.856 86.99 123.385C86.8504 117.914 85.247 112.589 82.3572 108M78.6549 136.238C80.8494 132.315 81.9497 127.843 81.8341 123.315C81.7185 118.787 80.3916 114.381 78 110.583" stroke="white" stroke-width="3"/>
<path d="M83.1485 74C85.8002 69.26 87.1297 63.8558 86.99 58.3849C86.8504 52.914 85.247 47.5894 82.3572 43M78.6549 71.2378C80.8494 67.315 81.9497 62.8426 81.8341 58.3149C81.7185 53.7873 80.3916 49.3808 78 45.5826" stroke="white" stroke-width="3"/>
<path d="M229.851 139C227.2 134.26 225.87 128.856 226.01 123.385C226.15 117.914 227.753 112.589 230.643 108M234.345 136.238C232.151 132.315 231.05 127.843 231.166 123.315C231.281 118.787 232.608 114.381 235 110.583" stroke="white" stroke-width="3"/>
<path d="M229.851 74C227.2 69.26 225.87 63.8558 226.01 58.3849C226.15 52.914 227.753 47.5894 230.643 43M234.345 71.2378C232.151 67.315 231.05 62.8426 231.166 58.3149C231.281 53.7873 232.608 49.3808 235 45.5826" stroke="white" stroke-width="3"/>
<rect x="105" y="50" width="101" height="101" fill="#E5018C"/>
<path fill-rule="evenodd" clip-rule="evenodd" d="M195.419 131.718C192.526 121.111 182.823 113.313 171.298 113.313H139.393C127.827 113.313 118.096 121.167 115.241 131.832L116.918 151H193.732L195.419 131.718Z" fill="#D7E1F2"/>
<circle cx="155.249" cy="84.6716" r="23.1144" fill="#D7E1F2"/>
<path d="M200.581 110C205 102.355 207.216 93.6384 206.983 84.8143C206.751 75.9902 204.078 67.4023 199.262 60M193.092 105.545C196.749 99.2178 198.583 92.0041 198.39 84.7015C198.198 77.3988 195.986 70.2916 192 64.1655" stroke="white" stroke-width="5"/>
<path d="M111.419 110C107 102.355 104.784 93.6384 105.017 84.8143C105.249 75.9902 107.922 67.4023 112.738 60M118.908 105.545C115.251 99.2178 113.417 92.0041 113.61 84.7015C113.802 77.3988 116.014 70.2916 120 64.1655" stroke="white" stroke-width="5"/>
<path d="M379.208 136.241C372.524 124.66 369.173 111.457 369.525 98.0912C369.877 84.7252 373.919 71.7169 381.202 60.5045M390.534 129.492C385.003 119.908 382.229 108.982 382.521 97.9203C382.812 86.8588 386.157 76.0933 392.185 66.8141" stroke="#F15A24" stroke-width="7"/>
<rect x="403" width="201" height="201" fill="#54C2BA"/>
<path d="M584.333 146.747C582.314 134.966 572.05 126 559.693 126H446.693C434.223 126 423.886 135.13 422 147.069L426.718 201H579.586L584.333 146.747Z" fill="#D7E1F2"/>
<circle cx="503" cy="69" r="46" fill="#D7E1F2"/>
</svg>